# xmcd
#
# Track frame offsets: 
#        150
#        25462
#        51052
#        71006
#        91771
#        109998
#        132500
#        152426
#        175903
#        199575
#        236458
#
# Disc length: 4440 seconds
#
# Revision: 5
# Processed by: cddbd v1.5.2PL0 Copyright (c) Steve Scherf et al.
# Submitted via: ExactAudioCopyFreeDBPlugin 1.0
#
DISCID=8e11560b
DTITLE=MISIA - SINGER FOR SINGER
DYEAR=2004
DGENRE=JPop
TTITLE0=Let It Smile
TTITLE1=星空の片隅で
TTITLE2=冬のエトランジェ
TTITLE3=Mama Says
TTITLE4=君だけがいない世界
TTITLE5=Birthday Cake
TTITLE6=虹のラララ
TTITLE7=風のない朝　星のない夜
TTITLE8=名前のない空を見上げて
TTITLE9=Holy Hold Me
TTITLE10=CCCD data
EXTD=YEAR: 2004
EXTT0=
EXTT1=
EXTT2=
EXTT3=
EXTT4=
EXTT5=
EXTT6=
EXTT7=
EXTT8=
EXTT9=
EXTT10=
PLAYORDER=
